<svg xmlns="http://www.w3.org/2000/svg" xmlns:xlink="http://www.w3.org/1999/xlink" width="500" zoomAndPan="magnify" viewBox="0 0 375 374.999991" height="500" preserveAspectRatio="xMidYMid meet" version="1.0"><defs><clipPath id="f0af01aef9"><path d="M 126.65625 168.75 L 248.15625 168.75 L 248.15625 318.75 L 126.65625 318.75 Z M 126.65625 168.75 " clip-rule="nonzero"/></clipPath><clipPath id="d627c02721"><path d="M 126.65625 177 L 126.65625 310.5 C 126.65625 315.054688 130.351562 318.75 134.90625 318.75 L 240.09375 318.75 C 244.648438 318.75 248.34375 315.054688 248.34375 310.5 L 248.34375 177 C 248.34375 172.445312 244.648438 168.75 240.09375 168.75 L 134.90625 168.75 C 130.351562 168.75 126.65625 172.445312 126.65625 177 Z M 126.65625 177 " clip-rule="nonzero"/></clipPath><clipPath id="2d5bbac1f1"><path d="M 126.65625 64.523438 L 248.34375 64.523438 L 248.34375 244 L 126.65625 244 Z M 126.65625 64.523438 " clip-rule="nonzero"/></clipPath><clipPath id="7ad0f4cd00"><path d="M 145.40625 64.523438 L 229.59375 64.523438 C 239.949219 64.523438 248.34375 72.917969 248.34375 83.273438 L 248.34375 225 C 248.34375 235.355469 239.949219 243.75 229.59375 243.75 L 145.40625 243.75 C 135.050781 243.75 126.65625 235.355469 126.65625 225 L 126.65625 83.273438 C 126.65625 72.917969 135.050781 64.523438 145.40625 64.523438 Z M 145.40625 64.523438 " clip-rule="nonzero"/></clipPath></defs><rect x="-37.5" width="450" fill="#ffffff" y="-37.499999" height="449.999989" fill-opacity="1"/><rect x="-37.5" width="450" fill="#006450" y="-37.499999" height="449.999989" fill-opacity="1"/><g clip-path="url(#f0af01aef9)"><g clip-path="url(#d627c02721)"><path fill="#1ed760" d="M 248.296875 168.703125 L 248.296875 318.6875 L 187.460938 257.84375 L 126.617188 318.6875 L 126.617188 168.703125 Z M 248.296875 168.703125 " fill-opacity="1" fill-rule="nonzero"/></g></g><g clip-path="url(#2d5bbac1f1)"><g clip-path="url(#7ad0f4cd00)"><path fill="#1ed760" d="M 126.65625 64.523438 L 248.34375 64.523438 L 248.34375 243.726562 L 126.65625 243.726562 Z M 126.65625 64.523438 " fill-opacity="1" fill-rule="nonzero"/></g></g></svg>